REM DIRINDEX 1\2\6,1\2\7,1\2\8,1\3\9,1\3\10,1\3\11,1\4\12,1\4\13,1\4\14,1\5\15,1\5\16,1\5\17,1\5\18
REM DIRNAME folder01,folder02,folder03,folder04,folder05,folder06,folder07,folder08,folder09,folder10,folder11,folder12,folder13,folder14,folder15,folder16,folder17,folder18
TITLE ""
FILE "" MP3
  TRACK 01 AUDIO
    TITLE "16:cjc019_5909"
    INDEX 01 00:00:00
  TRACK 02 AUDIO
    TITLE "0:"
    INDEX 01 00:00:72
  TRACK 03 AUDIO
    TITLE "18:cjc019_5910"
    INDEX 01 00:01:54
  TRACK 04 AUDIO
    TITLE "0:"
    INDEX 01 00:03:15
  TRACK 05 AUDIO
    TITLE "17:cjc019_5911"
    INDEX 01 00:03:68
  TRACK 06 AUDIO
    TITLE "0:"
    INDEX 01 00:05:01
  TRACK 07 AUDIO
    TITLE "16:cjc019_5912"
    INDEX 01 00:06:63
  TRACK 08 AUDIO
    TITLE "0:"
    INDEX 01 00:08:01
  TRACK 09 AUDIO
    TITLE "18:cjc019_5913"
    INDEX 01 00:08:64
  TRACK 10 AUDIO
    TITLE "0:"
    INDEX 01 00:10:18
  TRACK 11 AUDIO
    TITLE "17:cjc019_5914"
    INDEX 01 00:10:74
  TRACK 12 AUDIO
    TITLE "0:"
    INDEX 01 00:12:20
  TRACK 13 AUDIO
    TITLE "16:cjc019_5915"
    INDEX 01 00:14:06
  TRACK 14 AUDIO
    TITLE "0:"
    INDEX 01 00:15:07
  TRACK 15 AUDIO
    TITLE "18:cjc019_5916"
    INDEX 01 00:15:70
  TRACK 16 AUDIO
    TITLE "0:"
    INDEX 01 00:20:16
  TRACK 17 AUDIO
    TITLE "17:cjc019_5917"
    INDEX 01 00:20:71
  TRACK 18 AUDIO
    TITLE "0:"
    INDEX 01 00:21:74
  TRACK 19 AUDIO
    TITLE "16:cjc019_5918"
    INDEX 01 00:23:55
  TRACK 20 AUDIO
    TITLE "0:"
    INDEX 01 00:25:03
  TRACK 21 AUDIO
    TITLE "18:cjc019_5919"
    INDEX 01 00:25:58
  TRACK 22 AUDIO
    TITLE "0:"
    INDEX 01 00:28:64
  TRACK 23 AUDIO
    TITLE "17:cjc019_5920"
    INDEX 01 00:29:42
  TRACK 24 AUDIO
    TITLE "0:"
    INDEX 01 00:30:61
  TRACK 25 AUDIO
    TITLE "16:cjc019_5921"
    INDEX 01 00:32:45
  TRACK 26 AUDIO
    TITLE "0:"
    INDEX 01 00:33:69
  TRACK 27 AUDIO
    TITLE "18:cjc019_5922"
    INDEX 01 00:34:40
  TRACK 28 AUDIO
    TITLE "0:"
    INDEX 01 00:38:24
  TRACK 29 AUDIO
    TITLE "17:cjc019_5923"
    INDEX 01 00:39:00
  TRACK 30 AUDIO
    TITLE "0:"
    INDEX 01 00:40:26
  TRACK 31 AUDIO
    TITLE "16:cjc019_5924"
    INDEX 01 00:42:08
  TRACK 32 AUDIO
    TITLE "0:"
    INDEX 01 00:43:31
  TRACK 33 AUDIO
    TITLE "18:cjc019_5925"
    INDEX 01 00:44:14
  TRACK 34 AUDIO
    TITLE "0:"
    INDEX 01 00:47:28
  TRACK 35 AUDIO
    TITLE "17:cjc019_5926"
    INDEX 01 00:48:04
  TRACK 36 AUDIO
    TITLE "0:"
    INDEX 01 00:49:33
  TRACK 37 AUDIO
    TITLE "16:cjc019_5927"
    INDEX 01 00:51:16
  TRACK 38 AUDIO
    TITLE "0:"
    INDEX 01 00:52:37
  TRACK 39 AUDIO
    TITLE "18:cjc019_5928"
    INDEX 01 00:53:17
  TRACK 40 AUDIO
    TITLE "0:"
    INDEX 01 00:57:33
  TRACK 41 AUDIO
    TITLE "17:cjc019_5929"
    INDEX 01 00:58:15
  TRACK 42 AUDIO
    TITLE "0:"
    INDEX 01 00:59:34
  TRACK 43 AUDIO
    TITLE "16:cjc019_5930"
    INDEX 01 01:01:21
  TRACK 44 AUDIO
    TITLE "0:"
    INDEX 01 01:02:46
  TRACK 45 AUDIO
    TITLE "18:cjc019_5931"
    INDEX 01 01:03:27
  TRACK 46 AUDIO
    TITLE "0:"
    INDEX 01 01:06:59
  TRACK 47 AUDIO
    TITLE "17:cjc019_5932"
    INDEX 01 01:07:35
  TRACK 48 AUDIO
    TITLE "0:"
    INDEX 01 01:08:62
  TRACK 49 AUDIO
    TITLE "16:cjc019_5933"
    INDEX 01 01:10:45
  TRACK 50 AUDIO
    TITLE "0:"
    INDEX 01 01:11:72
  TRACK 51 AUDIO
    TITLE "18:cjc019_5934"
    INDEX 01 01:12:54
  TRACK 52 AUDIO
    TITLE "0:"
    INDEX 01 01:14:39
  TRACK 53 AUDIO
    TITLE "17:cjc019_5935"
    INDEX 01 01:15:17
  TRACK 54 AUDIO
    TITLE "0:"
    INDEX 01 01:16:40
  TRACK 55 AUDIO
    TITLE "16:cjc019_5936"
    INDEX 01 01:18:25
  TRACK 56 AUDIO
    TITLE "0:"
    INDEX 01 01:19:60
  TRACK 57 AUDIO
    TITLE "18:cjc019_5937"
    INDEX 01 01:20:42
  TRACK 58 AUDIO
    TITLE "0:"
    INDEX 01 01:23:36
  TRACK 59 AUDIO
    TITLE "17:cjc019_5938"
    INDEX 01 01:24:14
  TRACK 60 AUDIO
    TITLE "0:"
    INDEX 01 01:25:51
  TRACK 61 AUDIO
    TITLE "16:cjc019_5939"
    INDEX 01 01:27:36
  TRACK 62 AUDIO
    TITLE "0:"
    INDEX 01 01:28:61
  TRACK 63 AUDIO
    TITLE "18:cjc019_5940"
    INDEX 01 01:29:48
  TRACK 64 AUDIO
    TITLE "0:"
    INDEX 01 01:31:14
  TRACK 65 AUDIO
    TITLE "17:cjc019_5941"
    INDEX 01 01:31:63
  TRACK 66 AUDIO
    TITLE "0:"
    INDEX 01 01:33:11
  TRACK 67 AUDIO
    TITLE "16:cjc019_5942"
    INDEX 01 01:34:71
  TRACK 68 AUDIO
    TITLE "0:"
    INDEX 01 01:36:33
  TRACK 69 AUDIO
    TITLE "18:cjc019_5943"
    INDEX 01 01:37:11
  TRACK 70 AUDIO
    TITLE "0:"
    INDEX 01 01:42:00
  TRACK 71 AUDIO
    TITLE "17:cjc019_5944"
    INDEX 01 01:42:51
  TRACK 72 AUDIO
    TITLE "0:"
    INDEX 01 01:44:11
  TRACK 73 AUDIO
    TITLE "16:cjc019_5945"
    INDEX 01 01:45:69
  TRACK 74 AUDIO
    TITLE "0:"
    INDEX 01 01:47:19
  TRACK 75 AUDIO
    TITLE "18:cjc019_5946"
    INDEX 01 01:47:74
  TRACK 76 AUDIO
    TITLE "0:"
    INDEX 01 01:51:44
  TRACK 77 AUDIO
    TITLE "17:cjc019_5947"
    INDEX 01 01:52:14
  TRACK 78 AUDIO
    TITLE "0:"
    INDEX 01 01:53:41
  TRACK 79 AUDIO
    TITLE "16:cjc019_5948"
    INDEX 01 01:55:20
  TRACK 80 AUDIO
    TITLE "0:"
    INDEX 01 01:56:51
  TRACK 81 AUDIO
    TITLE "18:cjc019_5949"
    INDEX 01 01:57:23
  TRACK 82 AUDIO
    TITLE "0:"
    INDEX 01 01:58:70
  TRACK 83 AUDIO
    TITLE "17:cjc019_5950"
    INDEX 01 01:59:50
  TRACK 84 AUDIO
    TITLE "0:"
    INDEX 01 02:01:03
  TRACK 85 AUDIO
    TITLE "16:cjc019_5951"
    INDEX 01 02:02:62
  TRACK 86 AUDIO
    TITLE "0:"
    INDEX 01 02:03:73
  TRACK 87 AUDIO
    TITLE "18:cjc019_5952"
    INDEX 01 02:04:55
  TRACK 88 AUDIO
    TITLE "0:"
    INDEX 01 02:07:26
  TRACK 89 AUDIO
    TITLE "17:cjc019_5953"
    INDEX 01 02:08:01
  TRACK 90 AUDIO
    TITLE "0:"
    INDEX 01 02:09:19
  TRACK 91 AUDIO
    TITLE "16:cjc019_5954"
    INDEX 01 02:11:04
  TRACK 92 AUDIO
    TITLE "0:"
    INDEX 01 02:12:42
  TRACK 93 AUDIO
    TITLE "18:cjc019_5955"
    INDEX 01 02:13:20
  TRACK 94 AUDIO
    TITLE "0:"
    INDEX 01 02:14:59
  TRACK 95 AUDIO
    TITLE "17:cjc019_5956"
    INDEX 01 02:15:43
  TRACK 96 AUDIO
    TITLE "0:"
    INDEX 01 02:17:02
  TRACK 97 AUDIO
    TITLE "16:cjc019_5957"
    INDEX 01 02:18:55
  TRACK 98 AUDIO
    TITLE "0:"
    INDEX 01 02:20:09
  TRACK 99 AUDIO
    TITLE "18:cjc019_5958"
    INDEX 01 02:20:63
  TRACK 100 AUDIO
    TITLE "0:"
    INDEX 01 02:22:33
  TRACK 101 AUDIO
    TITLE "17:cjc019_5959"
    INDEX 01 02:23:13
  TRACK 102 AUDIO
    TITLE "0:"
    INDEX 01 02:24:40
  TRACK 103 AUDIO
    TITLE "16:cjc019_5960"
    INDEX 01 02:26:21
  TRACK 104 AUDIO
    TITLE "0:"
    INDEX 01 02:27:28
  TRACK 105 AUDIO
    TITLE "18:cjc019_5961"
    INDEX 01 02:28:12
  TRACK 106 AUDIO
    TITLE "0:"
    INDEX 01 02:33:09
  TRACK 107 AUDIO
    TITLE "17:cjc019_5962"
    INDEX 01 02:33:74
  TRACK 108 AUDIO
    TITLE "0:"
    INDEX 01 02:35:12
